<?xml version="1.0" encoding="utf-8"?>
<!-- Generator: Adobe Illustrator 16.0.0, SVG Export Plug-In . SVG Version: 6.00 Build 0)  -->
<!DOCTYPE svg PUBLIC "-//W3C//DTD SVG 1.1//EN" "http://www.w3.org/Graphics/SVG/1.1/DTD/svg11.dtd">
<svg version="1.1" id="Layer_1" xmlns="http://www.w3.org/2000/svg" xmlns:xlink="http://www.w3.org/1999/xlink" x="0px" y="0px"
	 width="900px" height="300px" viewBox="0 0 900 300" enable-background="new 0 0 900 300" xml:space="preserve">
<g>
	
		<image overflow="visible" opacity="0.75" width="857" height="136" xlink:href="995345DD.png"  transform="matrix(0.7279 0 0 0.7279 141 108)">
	</image>
	<g>
		<linearGradient id="SVGID_1_" gradientUnits="userSpaceOnUse" x1="205.5757" y1="193.8086" x2="205.5757" y2="120.2227">
			<stop  offset="0" style="stop-color:#FFDD00"/>
			<stop  offset="0.9946" style="stop-color:#B07500"/>
		</linearGradient>
		<linearGradient id="SVGID_2_" gradientUnits="userSpaceOnUse" x1="204.8735" y1="118.7222" x2="204.8735" y2="195.3091">
			<stop  offset="0" style="stop-color:#FFE854"/>
			<stop  offset="1" style="stop-color:#B08A3F"/>
		</linearGradient>
		<path fill="url(#SVGID_1_)" stroke="url(#SVGID_2_)" stroke-width="3" stroke-miterlimit="10" d="M225.922,193.809
			c-9.133,0-18.266,0-27.4,0c1.751-9.38,3.765-18.761,6.04-28.141c-2.424,0-4.848,0-7.272,0
			c-6.108,9.38-12.215,18.761-18.323,28.141c-8.239,0-16.478,0-24.716,0c17.412-24.528,34.823-49.058,52.235-73.586
			c11.568,0,23.135,0,34.703,0c7.651,0,12.415,1.986,14.511,5.957c2.083,3.972,1.48,9.209-2.029,15.715
			c-2.29,4.241-5.145,7.988-8.629,11.24c-3.483,3.253-8.546,6.119-15.274,8.599C228.116,172.425,226.834,183.116,225.922,193.809z
			 M207.54,149.926c3.153,0,6.305,0,9.458,0c2.783,0,5.388-0.593,7.792-1.779c2.405-1.186,4.287-2.929,5.669-5.229
			c2.819-4.708,1.506-7.063-3.941-7.063c-3.272,0-6.544,0-9.817,0C213.647,140.546,210.593,145.236,207.54,149.926z"/>
		<linearGradient id="SVGID_3_" gradientUnits="userSpaceOnUse" x1="271.4243" y1="193.8086" x2="271.4243" y2="120.2227">
			<stop  offset="0" style="stop-color:#FFDD00"/>
			<stop  offset="0.9946" style="stop-color:#B07500"/>
		</linearGradient>
		<linearGradient id="SVGID_4_" gradientUnits="userSpaceOnUse" x1="270.6313" y1="118.7222" x2="270.6313" y2="195.3091">
			<stop  offset="0" style="stop-color:#FFE854"/>
			<stop  offset="1" style="stop-color:#B08A3F"/>
		</linearGradient>
		<path fill="url(#SVGID_3_)" stroke="url(#SVGID_4_)" stroke-width="3" stroke-miterlimit="10" d="M282.001,193.809
			c0.447-4.834,0.946-9.668,1.498-14.502c-6.943,0-13.885,0-20.828,0c-3.82,4.834-7.694,9.668-11.625,14.502
			c-6.688,0-13.377,0-20.066,0c21.224-24.528,41-49.058,59.325-73.586c7.188,0,14.375,0,21.562,0
			c-3.02,24.529-4.568,49.058-4.644,73.586C298.816,193.809,290.409,193.809,282.001,193.809z M274.092,163.242
			c4.027,0,8.054,0,12.081,0c1.027-7.115,2.164-14.231,3.411-21.347C284.53,149.011,279.366,156.127,274.092,163.242z"/>
		<linearGradient id="SVGID_5_" gradientUnits="userSpaceOnUse" x1="353.2271" y1="193.8086" x2="353.2271" y2="120.2227">
			<stop  offset="0" style="stop-color:#FFDD00"/>
			<stop  offset="0.9946" style="stop-color:#B07500"/>
		</linearGradient>
		<linearGradient id="SVGID_6_" gradientUnits="userSpaceOnUse" x1="352.9409" y1="118.7222" x2="352.9409" y2="195.3091">
			<stop  offset="0" style="stop-color:#FFE854"/>
			<stop  offset="1" style="stop-color:#B08A3F"/>
		</linearGradient>
		<path fill="url(#SVGID_5_)" stroke="url(#SVGID_6_)" stroke-width="3" stroke-miterlimit="10" d="M346.906,167.07
			c-2.398,8.912-4.796,17.825-7.194,26.738c-8.357,0-16.713,0-25.07,0c8.061-24.528,16.122-49.058,24.183-73.586
			c9.458,0,18.917,0,28.375,0c7.07,0,12.24,0.899,15.594,2.696c3.35,1.797,5.805,4.547,7.384,8.248
			c1.576,3.703,2.035,7.853,1.273,12.453c-1.156,7.009-4.476,12.669-10.206,16.982c-5.718,4.313-12.883,6.47-21.249,6.47
			C355.634,167.07,351.27,167.07,346.906,167.07z M350.838,151.274c2.475,0,4.949,0,7.423,0c6.554,0,10.372-2.443,11.455-7.333
			c1.019-4.599-1.374-6.899-7.178-6.899c-2.62,0-5.239,0-7.858,0C353.399,141.786,352.119,146.53,350.838,151.274z"/>
		<linearGradient id="SVGID_7_" gradientUnits="userSpaceOnUse" x1="425.9702" y1="194.9414" x2="425.9702" y2="120.2227">
			<stop  offset="0" style="stop-color:#FFDD00"/>
			<stop  offset="0.9946" style="stop-color:#B07500"/>
		</linearGradient>
		<linearGradient id="SVGID_8_" gradientUnits="userSpaceOnUse" x1="425.9692" y1="118.7222" x2="425.9692" y2="196.4419">
			<stop  offset="0" style="stop-color:#FFE854"/>
			<stop  offset="1" style="stop-color:#B08A3F"/>
		</linearGradient>
		<path fill="url(#SVGID_7_)" stroke="url(#SVGID_8_)" stroke-width="3" stroke-miterlimit="10" d="M456.806,120.222
			c0.183,16.245,0.364,32.49,0.546,48.735c0.117,9.236-2.686,15.876-8.666,19.919c-5.963,4.044-13.908,6.065-23.573,6.065
			c-10.18,0-18.197-1.94-23.795-5.823c-5.617-3.881-7.651-10.206-6.359-18.976c2.429-16.641,4.857-33.28,7.286-49.92
			c6.911,0,13.823,0,20.734,0c-1.358,15.759-2.717,31.519-4.076,47.279c-0.305,3.522,0.241,6.092,1.667,7.709
			c1.425,1.617,3.869,2.426,7.302,2.426c2.866,0,5.247-0.583,7.119-1.752c1.874-1.168,3.004-2.488,3.412-3.962
			c0.406-1.474,0.683-4.349,0.833-8.626c0.503-14.358,1.006-28.716,1.51-43.074C446.098,120.222,451.451,120.222,456.806,120.222z"
			/>
		<linearGradient id="SVGID_9_" gradientUnits="userSpaceOnUse" x1="503.6953" y1="193.8086" x2="503.6953" y2="120.2227">
			<stop  offset="0" style="stop-color:#FFDD00"/>
			<stop  offset="0.9946" style="stop-color:#B07500"/>
		</linearGradient>
		<linearGradient id="SVGID_10_" gradientUnits="userSpaceOnUse" x1="503.833" y1="118.7222" x2="503.833" y2="195.3091">
			<stop  offset="0" style="stop-color:#FFE854"/>
			<stop  offset="1" style="stop-color:#B08A3F"/>
		</linearGradient>
		<path fill="url(#SVGID_9_)" stroke="url(#SVGID_10_)" stroke-width="3" stroke-miterlimit="10" d="M539.684,193.809
			c-6.704,0-13.409,0-20.114,0c-9.068-10.838-17.568-21.675-25.499-32.514c-3.055-4.169-6.142-9.234-9.203-15.196
			c1.557,4.744,2.519,8.77,2.815,12.076c1.073,11.878,2.146,23.756,3.218,35.634c-6.686,0-13.371,0-20.057,0
			c-1.045-24.528-2.09-49.058-3.137-73.586c6.426,0,12.851,0,19.275,0c6.041,8.984,12.482,17.969,19.326,26.953
			c4.088,5.356,7.414,10.065,9.852,14.125c-2.186-6.289-3.758-12.722-4.799-19.299c-1.15-7.26-2.301-14.52-3.451-21.779
			c5.533,0,11.065,0,16.598,0C529.566,144.751,534.625,169.28,539.684,193.809z"/>
		<linearGradient id="SVGID_11_" gradientUnits="userSpaceOnUse" x1="574.957" y1="193.8086" x2="574.957" y2="120.2227">
			<stop  offset="0" style="stop-color:#FFDD00"/>
			<stop  offset="0.9946" style="stop-color:#B07500"/>
		</linearGradient>
		<linearGradient id="SVGID_12_" gradientUnits="userSpaceOnUse" x1="575.1055" y1="118.7222" x2="575.1055" y2="195.3091">
			<stop  offset="0" style="stop-color:#FFE854"/>
			<stop  offset="1" style="stop-color:#B08A3F"/>
		</linearGradient>
		<path fill="url(#SVGID_11_)" stroke="url(#SVGID_12_)" stroke-width="3" stroke-miterlimit="10" d="M609.004,176.45
			c2.239,5.786,4.479,11.572,6.718,17.358c-22.338,0-44.675,0-67.013,0c-1.067-4.69-2.135-9.38-3.203-14.07
			c8.272-14.16,15.343-28.32,21.213-42.48c-9.512,0-19.024,0-28.537,0c-1.328-5.679-2.658-11.357-3.988-17.036
			c17.376,0,34.752,0,52.128,0c1.83,4.762,3.66,9.523,5.49,14.286c-4.548,13.981-10.248,27.961-17.099,41.942
			C586.144,176.45,597.574,176.45,609.004,176.45z"/>
		<linearGradient id="SVGID_13_" gradientUnits="userSpaceOnUse" x1="640.0098" y1="193.8086" x2="640.0098" y2="120.2227">
			<stop  offset="0" style="stop-color:#FFDD00"/>
			<stop  offset="0.9946" style="stop-color:#B07500"/>
		</linearGradient>
		<linearGradient id="SVGID_14_" gradientUnits="userSpaceOnUse" x1="640.1641" y1="118.7222" x2="640.1641" y2="195.3091">
			<stop  offset="0" style="stop-color:#FFE854"/>
			<stop  offset="1" style="stop-color:#B08A3F"/>
		</linearGradient>
		<path fill="url(#SVGID_13_)" stroke="url(#SVGID_14_)" stroke-width="3" stroke-miterlimit="10" d="M675.619,176.234
			c3.236,5.858,6.473,11.716,9.709,17.574c-20.194,0-40.388,0-60.582,0c-10.018-24.528-20.035-49.058-30.054-73.586
			c16.662,0,33.324,0,49.986,0c3.127,5.661,6.254,11.321,9.381,16.981c-10.483,0-20.966,0-31.448,0
			c1.658,3.558,3.316,7.116,4.974,10.674c8.724,0,17.446,0,26.17,0c2.918,5.446,5.836,10.89,8.753,16.335c-9.103,0-18.206,0-27.31,0
			c1.867,4.007,3.734,8.015,5.603,12.021C652.407,176.234,664.014,176.234,675.619,176.234z"/>
		<linearGradient id="SVGID_15_" gradientUnits="userSpaceOnUse" x1="702.165" y1="193.8086" x2="702.165" y2="120.2227">
			<stop  offset="0" style="stop-color:#FFDD00"/>
			<stop  offset="0.9946" style="stop-color:#B07500"/>
		</linearGradient>
		<linearGradient id="SVGID_16_" gradientUnits="userSpaceOnUse" x1="702.3203" y1="118.7222" x2="702.3203" y2="195.3091">
			<stop  offset="0" style="stop-color:#FFE854"/>
			<stop  offset="1" style="stop-color:#B08A3F"/>
		</linearGradient>
		<path fill="url(#SVGID_15_)" stroke="url(#SVGID_16_)" stroke-width="3" stroke-miterlimit="10" d="M738.753,175.749
			c4.272,6.02,8.546,12.04,12.819,18.06c-18.817,0-37.635,0-56.452,0c-14.121-24.528-28.241-49.058-42.362-73.586
			c6.799,0,13.596,0,20.395,0c11.742,18.509,23.484,37.018,35.227,55.527C718.503,175.749,728.628,175.749,738.753,175.749z"/>
	</g>
</g>
<g>
	<image overflow="visible" opacity="0.75" width="295" height="50" xlink:href="995345DF.png"  transform="matrix(1 0 0 1 296 5)">
	</image>
	<g>
		<g>
			<path fill="#FFDD00" stroke="#FFDD00" stroke-miterlimit="10" d="M313.453,38.94c-0.476,0-0.951,0-1.427,0
				c3.651-5.587,7.303-11.174,10.955-16.761c-1.712,0-3.424,0-5.136,0c0.275-0.403,0.55-0.808,0.825-1.211c3.842,0,7.685,0,11.527,0
				c-0.25,0.403-0.5,0.808-0.75,1.211c-1.719,0-3.439,0-5.159,0C320.677,27.767,317.065,33.354,313.453,38.94z"/>
			<path fill="#FFDD00" stroke="#FFDD00" stroke-miterlimit="10" d="M345.065,30.484c-3.13,0-6.26,0-9.39,0
				c-1.578,2.818-3.156,5.638-4.734,8.456c-0.476,0-0.951,0-1.427,0c3.396-5.99,6.792-11.981,10.188-17.972c0.433,0,0.866,0,1.3,0
				c-1.55,2.769-3.1,5.536-4.649,8.305c3.11,0,6.221,0,9.331,0c1.416-2.769,2.831-5.536,4.246-8.305c0.433,0,0.866,0,1.299,0
				c-3.02,5.99-6.041,11.981-9.061,17.972c-0.476,0-0.951,0-1.427,0C342.183,36.122,343.624,33.303,345.065,30.484z"/>
			<path fill="#FFDD00" stroke="#FFDD00" stroke-miterlimit="10" d="M362.66,20.969c3.465,0,6.931,0,10.396,0
				c-0.156,0.403-0.312,0.808-0.467,1.211c-3.052,0-6.104,0-9.156,0c-1.028,2.364-2.057,4.729-3.085,7.094c2.7,0,5.399,0,8.099,0
				c-0.159,0.403-0.317,0.808-0.476,1.211c-2.717,0-5.434,0-8.15,0c-1.05,2.415-2.1,4.829-3.15,7.244c3.309,0,6.617,0,9.926,0
				c-0.156,0.404-0.312,0.808-0.467,1.212c-3.804,0-7.608,0-11.413,0C357.365,32.95,360.012,26.959,362.66,20.969z"/>
			<path fill="#FFDD00" stroke="#FFDD00" stroke-miterlimit="10" d="M395.459,20.969c0.433,0,0.866,0,1.3,0
				c-1.433,5.587-2.865,11.173-4.297,16.76c3.309,0,6.617,0,9.926,0c-0.083,0.404-0.167,0.808-0.251,1.212
				c-3.804,0-7.608,0-11.413,0C392.303,32.95,393.881,26.959,395.459,20.969z"/>
			<path fill="#FFDD00" stroke="#FFDD00" stroke-miterlimit="10" d="M415.36,20.969c3.465,0,6.931,0,10.396,0
				c-0.04,0.403-0.08,0.808-0.12,1.211c-3.052,0-6.104,0-9.156,0c-0.35,2.364-0.7,4.729-1.05,7.094c2.7,0,5.399,0,8.099,0
				c-0.043,0.403-0.085,0.808-0.128,1.211c-2.717,0-5.434,0-8.15,0c-0.357,2.415-0.715,4.829-1.073,7.244c3.309,0,6.617,0,9.926,0
				c-0.04,0.404-0.08,0.808-0.12,1.212c-3.804,0-7.608,0-11.413,0C413.501,32.95,414.431,26.959,415.36,20.969z"/>
			<path fill="#FFDD00" stroke="#FFDD00" stroke-miterlimit="10" d="M447.179,32.681c0.033,1.868-0.441,3.315-1.445,4.341
				c-1.277,1.381-2.932,2.07-4.924,2.07c-1.851,0-3.408-0.613-4.635-1.842c-0.757-0.758-1.209-1.675-1.367-2.752
				c-0.12-0.758-0.126-2.271-0.019-4.543s0.254-3.795,0.438-4.568c0.246-1.061,0.752-1.97,1.509-2.727
				c1.23-1.229,2.669-1.843,4.351-1.843c1.491,0,2.767,0.479,3.856,1.438c1.087,0.959,1.784,2.23,2.075,3.812
				c-0.445,0-0.891,0-1.336,0c-0.276-1.245-0.823-2.229-1.635-2.953c-0.829-0.724-1.816-1.085-2.978-1.085
				c-1.291,0-2.389,0.463-3.313,1.388c-0.605,0.606-1.02,1.38-1.237,2.322c-0.161,0.741-0.284,2.146-0.367,4.216
				c-0.083,2.069-0.071,3.475,0.038,4.215c0.152,0.942,0.529,1.717,1.136,2.322c0.925,0.926,2.099,1.389,3.501,1.389
				c1.595,0,2.897-0.581,3.882-1.742c0.744-0.908,1.101-2.096,1.086-3.559c-0.005-0.538-0.011-1.077-0.016-1.615
				c-1.615,0-3.231,0-4.846,0c0.006-0.404,0.012-0.808,0.018-1.212c2.06,0,4.119,0,6.178,0
				C447.146,30.729,447.163,31.705,447.179,32.681z"/>
			<path fill="#FFDD00" stroke="#FFDD00" stroke-miterlimit="10" d="M457.688,20.969c3.466,0,6.931,0,10.396,0
				c0.053,0.403,0.106,0.808,0.159,1.211c-3.052,0-6.104,0-9.156,0c0.194,2.364,0.389,4.729,0.584,7.094c2.699,0,5.399,0,8.099,0
				c0.051,0.403,0.101,0.808,0.151,1.211c-2.717,0-5.434,0-8.15,0c0.198,2.415,0.396,4.829,0.596,7.244c3.309,0,6.617,0,9.926,0
				c0.053,0.404,0.106,0.808,0.159,1.212c-3.804,0-7.608,0-11.412,0C458.59,32.95,458.139,26.959,457.688,20.969z"/>
			<path fill="#FFDD00" stroke="#FFDD00" stroke-miterlimit="10" d="M479.971,23.316c1.01,5.208,2.02,10.416,3.03,15.624
				c-0.476,0-0.952,0-1.428,0c-1.119-5.99-2.238-11.981-3.357-17.972c0.433,0,0.866,0,1.299,0
				c4.304,5.191,8.887,10.383,13.75,15.574c-1.287-5.191-2.573-10.383-3.859-15.574c0.434,0,0.866,0,1.3,0
				c1.526,5.99,3.054,11.981,4.58,17.972c-0.476,0-0.951,0-1.427,0C488.948,33.732,484.319,28.524,479.971,23.316z"/>
			<path fill="#FFDD00" stroke="#FFDD00" stroke-miterlimit="10" d="M509.287,38.94c-0.476,0-0.951,0-1.428,0
				c-1.896-5.982-3.794-11.964-5.691-17.946c1.917,0,3.834,0,5.752,0c1.796,0,3.41,0.547,4.869,1.641
				c1.07,0.791,1.993,1.893,2.762,3.307c0.402,0.758,0.938,2.011,1.605,3.761c0.711,1.868,1.163,3.214,1.356,4.038
				c0.344,1.582,0.255,2.769-0.273,3.56c-0.728,1.095-2.093,1.641-4.066,1.641c-0.897,0-1.796,0-2.693,0
				c-0.136-0.404-0.271-0.808-0.406-1.212c0.778,0,1.558,0,2.336,0c1.752,0,2.919-0.463,3.483-1.388
				c0.577-0.942,0.205-3.155-1.099-6.639c-1.171-3.13-2.369-5.165-3.575-6.108c-1.187-0.926-2.578-1.389-4.192-1.389
				c-1.389,0-2.777,0-4.166,0C505.669,27.783,507.478,33.362,509.287,38.94z"/>
			<path fill="#FFDD00" stroke="#FFDD00" stroke-miterlimit="10" d="M550.512,38.915c-1.472-0.218-2.932-0.79-4.364-1.716
				c-1.183-0.774-2.14-1.691-2.88-2.752c-0.536-0.757-1.37-2.263-2.504-4.518c-1.133-2.255-1.815-3.762-2.049-4.519
				c-0.338-1.06-0.332-1.969,0.01-2.726c0.539-1.229,1.631-1.843,3.314-1.843c1.667,0,3.417,0.614,5.284,1.843
				c1.15,0.757,2.129,1.666,2.925,2.726c0.56,0.757,1.479,2.264,2.757,4.519c1.276,2.255,2.062,3.761,2.351,4.518
				c0.394,1.061,0.416,1.978,0.063,2.752c-0.461,0.959-1.366,1.539-2.701,1.741c-0.219-0.404-0.437-0.808-0.654-1.212
				c0.881-0.185,1.486-0.613,1.81-1.287c0.293-0.605,0.264-1.371-0.081-2.297c-0.269-0.758-0.978-2.162-2.125-4.215
				c-1.148-2.053-2.005-3.449-2.566-4.19c-0.69-0.942-1.497-1.716-2.418-2.322c-1.396-0.908-2.722-1.362-3.995-1.362
				c-1.292,0-2.14,0.454-2.564,1.362c-0.271,0.606-0.252,1.38,0.064,2.322c0.247,0.741,0.894,2.138,1.939,4.19
				c1.047,2.053,1.829,3.457,2.354,4.215c0.646,0.926,1.435,1.691,2.373,2.297c0.983,0.623,1.985,1.035,3.003,1.236
				C550.075,38.09,550.294,38.503,550.512,38.915z"/>
			<path fill="#FFDD00" stroke="#FFDD00" stroke-miterlimit="10" d="M565.425,29.576c2.704,0,5.408,0,8.112,0
				c0.271,0.403,0.544,0.808,0.816,1.211c-2.722,0-5.442,0-8.163,0c1.717,2.718,3.435,5.436,5.151,8.153c-0.476,0-0.951,0-1.427,0
				c-3.743-5.99-7.485-11.981-11.229-17.972c3.466,0,6.931,0,10.396,0c0.275,0.403,0.551,0.808,0.825,1.211
				c-3.052,0-6.104,0-9.156,0C562.31,24.646,563.867,27.11,565.425,29.576z"/>
		</g>
	</g>
</g>
<g>
	<g>
		
			<image overflow="visible" opacity="0.75" width="58" height="50" xlink:href="995345DA.png"  transform="matrix(1 0 0 1 197 229)">
		</image>
		<g>
			<path fill="#FFDD00" d="M238.709,245.016c-3.553,5.974-6.936,11.947-10.149,17.921c-0.503,0-1.005,0-1.508,0
				c0.808-1.455,1.626-2.911,2.454-4.366c-0.009,0-0.017,0-0.026,0c0.232-0.396,0.465-0.792,0.699-1.188
				c0.345-0.597,0.692-1.194,1.041-1.791c0.212-0.37,0.425-0.741,0.638-1.111c1.487-2.549,3.003-5.099,4.549-7.647
				c-4.534,3.517-9.124,7.033-13.771,10.55c1.761,0,3.522,0,5.283,0c-0.229,0.396-0.458,0.792-0.686,1.188c-2.059,0-4.118,0-6.177,0
				c-1.935,1.455-3.88,2.911-5.834,4.366c-0.503,0-1.006,0-1.508,0c8.116-5.974,16.063-11.947,23.841-17.921
				C237.94,245.016,238.325,245.016,238.709,245.016z"/>
			<path fill="none" stroke="#FFDD00" stroke-miterlimit="10" d="M238.709,245.016c-3.553,5.974-6.936,11.947-10.149,17.921
				c-0.503,0-1.005,0-1.508,0c0.808-1.455,1.626-2.911,2.454-4.366c-0.009,0-0.017,0-0.026,0c0.232-0.396,0.465-0.792,0.699-1.188
				c0.345-0.597,0.692-1.194,1.041-1.791c0.212-0.37,0.425-0.741,0.638-1.111c1.487-2.549,3.003-5.099,4.549-7.647
				c-4.534,3.517-9.124,7.033-13.771,10.55c1.761,0,3.522,0,5.283,0c-0.229,0.396-0.458,0.792-0.686,1.188c-2.059,0-4.118,0-6.177,0
				c-1.935,1.455-3.88,2.911-5.834,4.366c-0.503,0-1.006,0-1.508,0c8.116-5.974,16.063-11.947,23.841-17.921
				C237.94,245.016,238.325,245.016,238.709,245.016z"/>
		</g>
	</g>
	<g>
		
			<image overflow="visible" opacity="0.75" width="55" height="50" xlink:href="995345DB.png"  transform="matrix(1 0 0 1 223 229)">
		</image>
		<g>
			<path fill="#FFDD00" d="M248.664,261.75c-1.869,0.893-3.774,1.338-5.701,1.338c-2.481,0-3.854-0.791-4.07-2.373
				c0.608-0.319,1.216-0.64,1.822-0.959c0.193,1.414,1.328,2.121,3.364,2.121c1.467,0,2.903-0.328,4.298-0.984
				c1.395-0.656,2.573-1.565,3.545-2.727c0.943-1.127,1.318-1.969,1.129-2.523c-0.21-0.488-0.803-0.809-1.778-0.96
				c-0.601-0.109-1.201-0.219-1.801-0.328c-1.18-0.202-1.859-0.64-2.035-1.313c-0.239-0.79,0.273-1.894,1.52-3.307
				c1.335-1.515,2.877-2.718,4.608-3.609c1.715-0.874,3.392-1.313,5.042-1.313c1.858,0,2.947,0.647,3.304,1.943
				c-0.529,0.295-1.059,0.589-1.59,0.884c-0.188-1.111-1.108-1.666-2.782-1.666c-1.256,0-2.513,0.328-3.78,0.984
				c-1.283,0.656-2.437,1.564-3.455,2.727c-0.914,1.043-1.296,1.826-1.137,2.347c0.159,0.539,0.718,0.909,1.676,1.11
				c0.553,0.101,1.107,0.202,1.662,0.303c1.258,0.203,1.984,0.598,2.176,1.188c0.318,0.857-0.123,2.019-1.339,3.482
				C252.069,259.646,250.515,260.858,248.664,261.75z"/>
			<path fill="none" stroke="#FFDD00" stroke-miterlimit="10" d="M248.664,261.75c-1.869,0.893-3.774,1.338-5.701,1.338
				c-2.481,0-3.854-0.791-4.07-2.373c0.608-0.319,1.216-0.64,1.822-0.959c0.193,1.414,1.328,2.121,3.364,2.121
				c1.467,0,2.903-0.328,4.298-0.984c1.395-0.656,2.573-1.565,3.545-2.727c0.943-1.127,1.318-1.969,1.129-2.523
				c-0.21-0.488-0.803-0.809-1.778-0.96c-0.601-0.109-1.201-0.219-1.801-0.328c-1.18-0.202-1.859-0.64-2.035-1.313
				c-0.239-0.79,0.273-1.894,1.52-3.307c1.335-1.515,2.877-2.718,4.608-3.609c1.715-0.874,3.392-1.313,5.042-1.313
				c1.858,0,2.947,0.647,3.304,1.943c-0.529,0.295-1.059,0.589-1.59,0.884c-0.188-1.111-1.108-1.666-2.782-1.666
				c-1.256,0-2.513,0.328-3.78,0.984c-1.283,0.656-2.437,1.564-3.455,2.727c-0.914,1.043-1.296,1.826-1.137,2.347
				c0.159,0.539,0.718,0.909,1.676,1.11c0.553,0.101,1.107,0.202,1.662,0.303c1.258,0.203,1.984,0.598,2.176,1.188
				c0.318,0.857-0.123,2.019-1.339,3.482C252.069,259.646,250.515,260.858,248.664,261.75z"/>
		</g>
	</g>
	<g>
		
			<image overflow="visible" opacity="0.75" width="53" height="50" xlink:href="995345E5.png"  transform="matrix(1 0 0 1 241 229)">
		</image>
		<g>
			<path fill="#FFDD00" d="M258.563,262.937c-0.468,0-0.937,0-1.404,0c4.462-5.587,8.924-11.174,13.386-16.761
				c-1.709,0-3.418,0-5.127,0c0.332-0.403,0.664-0.808,0.995-1.211c3.84,0,7.68,0,11.52,0c-0.311,0.403-0.621,0.808-0.932,1.211
				c-1.717,0-3.434,0-5.15,0C267.422,251.763,262.993,257.35,258.563,262.937z"/>
			<path fill="none" stroke="#FFDD00" stroke-miterlimit="10" d="M258.563,262.937c-0.468,0-0.937,0-1.404,0
				c4.462-5.587,8.924-11.174,13.386-16.761c-1.709,0-3.418,0-5.127,0c0.332-0.403,0.664-0.808,0.995-1.211c3.84,0,7.68,0,11.52,0
				c-0.311,0.403-0.621,0.808-0.932,1.211c-1.717,0-3.434,0-5.15,0C267.422,251.763,262.993,257.35,258.563,262.937z"/>
		</g>
	</g>
	<g>
		
			<image overflow="visible" opacity="0.75" width="51" height="50" xlink:href="995345E7.png"  transform="matrix(1 0 0 1 254 229)">
		</image>
		<g>
			<path fill="#FFDD00" d="M271.737,262.911c-1.174-0.218-1.892-0.79-2.141-1.716c-0.192-0.774,0.015-1.691,0.616-2.752
				c0.421-0.757,1.488-2.263,3.201-4.518s2.932-3.762,3.653-4.519c0.999-1.06,2.151-1.969,3.448-2.726
				c2.088-1.229,3.958-1.843,5.641-1.843c1.666,0,2.636,0.614,2.939,1.843c0.187,0.757,0.006,1.666-0.547,2.726
				c-0.405,0.757-1.404,2.264-2.997,4.519c-1.594,2.255-2.726,3.761-3.397,4.518c-0.955,1.061-2.091,1.978-3.418,2.752
				c-1.666,0.959-3.288,1.539-4.857,1.741c0.294-0.404,0.589-0.808,0.883-1.212c1.101-0.185,2.238-0.613,3.408-1.287
				c1.053-0.605,1.992-1.371,2.822-2.297c0.694-0.758,1.771-2.162,3.233-4.215s2.383-3.449,2.765-4.19
				c0.509-0.942,0.687-1.716,0.538-2.322c-0.239-0.908-0.987-1.362-2.259-1.362c-1.289,0-2.71,0.454-4.282,1.362
				c-1.037,0.606-1.993,1.38-2.866,2.322c-0.689,0.741-1.807,2.138-3.354,4.19s-2.539,3.457-2.973,4.215
				c-0.526,0.926-0.709,1.691-0.545,2.297c0.186,0.623,0.655,1.035,1.404,1.236C272.346,262.086,272.042,262.499,271.737,262.911z"
				/>
			<path fill="none" stroke="#FFDD00" stroke-miterlimit="10" d="M271.737,262.911c-1.174-0.218-1.892-0.79-2.141-1.716
				c-0.192-0.774,0.015-1.691,0.616-2.752c0.421-0.757,1.488-2.263,3.201-4.518s2.932-3.762,3.653-4.519
				c0.999-1.06,2.151-1.969,3.448-2.726c2.088-1.229,3.958-1.843,5.641-1.843c1.666,0,2.636,0.614,2.939,1.843
				c0.187,0.757,0.006,1.666-0.547,2.726c-0.405,0.757-1.404,2.264-2.997,4.519c-1.594,2.255-2.726,3.761-3.397,4.518
				c-0.955,1.061-2.091,1.978-3.418,2.752c-1.666,0.959-3.288,1.539-4.857,1.741c0.294-0.404,0.589-0.808,0.883-1.212
				c1.101-0.185,2.238-0.613,3.408-1.287c1.053-0.605,1.992-1.371,2.822-2.297c0.694-0.758,1.771-2.162,3.233-4.215
				s2.383-3.449,2.765-4.19c0.509-0.942,0.687-1.716,0.538-2.322c-0.239-0.908-0.987-1.362-2.259-1.362
				c-1.289,0-2.71,0.454-4.282,1.362c-1.037,0.606-1.993,1.38-2.866,2.322c-0.689,0.741-1.807,2.138-3.354,4.19
				s-2.539,3.457-2.973,4.215c-0.526,0.926-0.709,1.691-0.545,2.297c0.186,0.623,0.655,1.035,1.404,1.236
				C272.346,262.086,272.042,262.499,271.737,262.911z"/>
		</g>
	</g>
	<g>
		
			<image overflow="visible" opacity="0.75" width="54" height="50" xlink:href="995345EA.png"  transform="matrix(1 0 0 1 268 229)">
		</image>
		<g>
			<path fill="#FFDD00" d="M285.55,262.937c-0.468,0-0.936,0-1.404,0c4.116-5.999,8.231-11.998,12.347-17.997
				c2.172,0,4.345,0,6.517,0c1.443,0,2.343,0.412,2.718,1.236c0.39,0.876,0.113,2.07-0.848,3.585
				c-0.854,1.347-1.917,2.44-3.203,3.281c-1.252,0.842-2.598,1.372-4.028,1.591c-0.358,2.768-0.665,5.536-0.919,8.304
				c-0.554,0-1.109,0-1.664,0c0.294-2.76,0.639-5.519,1.035-8.278c-0.594,0-1.188,0-1.782,0c0.27-0.404,0.539-0.809,0.808-1.213
				c0.708,0,1.415,0,2.123,0c1.198,0,2.331-0.293,3.392-0.883c1.142-0.639,2.096-1.564,2.872-2.776
				c0.765-1.194,0.994-2.112,0.694-2.751c-0.284-0.59-1.002-0.884-2.162-0.884c-1.693,0-3.385,0-5.078,0
				C293.162,251.746,289.355,257.342,285.55,262.937z"/>
			<path fill="none" stroke="#FFDD00" stroke-miterlimit="10" d="M285.55,262.937c-0.468,0-0.936,0-1.404,0
				c4.116-5.999,8.231-11.998,12.347-17.997c2.172,0,4.345,0,6.517,0c1.443,0,2.343,0.412,2.718,1.236
				c0.39,0.876,0.113,2.07-0.848,3.585c-0.854,1.347-1.917,2.44-3.203,3.281c-1.252,0.842-2.598,1.372-4.028,1.591
				c-0.358,2.768-0.665,5.536-0.919,8.304c-0.554,0-1.109,0-1.664,0c0.294-2.76,0.639-5.519,1.035-8.278c-0.594,0-1.188,0-1.782,0
				c0.27-0.404,0.539-0.809,0.808-1.213c0.708,0,1.415,0,2.123,0c1.198,0,2.331-0.293,3.392-0.883
				c1.142-0.639,2.096-1.564,2.872-2.776c0.765-1.194,0.994-2.112,0.694-2.751c-0.284-0.59-1.002-0.884-2.162-0.884
				c-1.693,0-3.385,0-5.078,0C293.162,251.746,289.355,257.342,285.55,262.937z"/>
		</g>
	</g>
	<g>
		
			<image overflow="visible" opacity="0.75" width="50" height="50" xlink:href="995345EB.png"  transform="matrix(1 0 0 1 288 229)">
		</image>
		<g>
			<path fill="#FFDD00" d="M305.518,262.937c-0.468,0-0.937,0-1.404,0c1.496-2.482,2.992-4.964,4.488-7.446
				c0.351-3.509,0.782-7.017,1.293-10.525c0.465,0,0.93,0,1.396,0c-0.424,3.029-0.79,6.058-1.095,9.087
				c3.293-3.029,6.528-6.058,9.705-9.087c0.465,0,0.93,0,1.395,0c-3.698,3.509-7.475,7.017-11.333,10.525
				C308.48,257.973,306.999,260.454,305.518,262.937z"/>
			<path fill="none" stroke="#FFDD00" stroke-miterlimit="10" d="M305.518,262.937c-0.468,0-0.937,0-1.404,0
				c1.496-2.482,2.992-4.964,4.488-7.446c0.351-3.509,0.782-7.017,1.293-10.525c0.465,0,0.93,0,1.396,0
				c-0.424,3.029-0.79,6.058-1.095,9.087c3.293-3.029,6.528-6.058,9.705-9.087c0.465,0,0.93,0,1.395,0
				c-3.698,3.509-7.475,7.017-11.333,10.525C308.48,257.973,306.999,260.454,305.518,262.937z"/>
		</g>
	</g>
	<g>
		
			<image overflow="visible" opacity="0.75" width="49" height="50" xlink:href="995345ED.png"  transform="matrix(1 0 0 1 306 229)">
		</image>
		<g>
			<path fill="#FFDD00" d="M325.238,262.911c-1.223-0.218-2.068-0.79-2.524-1.716c-0.365-0.774-0.362-1.691,0.002-2.752
				c0.251-0.757,0.983-2.263,2.192-4.518s2.091-3.762,2.644-4.519c0.763-1.06,1.712-1.969,2.84-2.726
				c1.814-1.229,3.546-1.843,5.229-1.843c1.666,0,2.773,0.614,3.351,1.843c0.355,0.757,0.377,1.666,0.061,2.726
				c-0.236,0.757-0.898,2.264-1.988,4.519s-1.885,3.761-2.388,4.518c-0.718,1.061-1.65,1.978-2.804,2.752
				c-1.452,0.959-2.944,1.539-4.468,1.741c0.204-0.404,0.409-0.808,0.613-1.212c1.059-0.185,2.101-0.613,3.121-1.287
				c0.918-0.605,1.686-1.371,2.31-2.297c0.524-0.758,1.287-2.162,2.292-4.215c1.004-2.053,1.612-3.449,1.829-4.19
				c0.298-0.942,0.304-1.716,0.02-2.322c-0.442-0.908-1.292-1.362-2.563-1.362c-1.289,0-2.609,0.454-3.978,1.362
				c-0.901,0.606-1.685,1.38-2.348,2.322c-0.523,0.741-1.329,2.138-2.417,4.19c-1.089,2.053-1.767,3.457-2.032,4.215
				c-0.319,0.926-0.332,1.691-0.032,2.297c0.325,0.623,0.886,1.035,1.68,1.236C325.663,262.086,325.451,262.499,325.238,262.911z"/>
			<path fill="none" stroke="#FFDD00" stroke-miterlimit="10" d="M325.238,262.911c-1.223-0.218-2.068-0.79-2.524-1.716
				c-0.365-0.774-0.362-1.691,0.002-2.752c0.251-0.757,0.983-2.263,2.192-4.518s2.091-3.762,2.644-4.519
				c0.763-1.06,1.712-1.969,2.84-2.726c1.814-1.229,3.546-1.843,5.229-1.843c1.666,0,2.773,0.614,3.351,1.843
				c0.355,0.757,0.377,1.666,0.061,2.726c-0.236,0.757-0.898,2.264-1.988,4.519s-1.885,3.761-2.388,4.518
				c-0.718,1.061-1.65,1.978-2.804,2.752c-1.452,0.959-2.944,1.539-4.468,1.741c0.204-0.404,0.409-0.808,0.613-1.212
				c1.059-0.185,2.101-0.613,3.121-1.287c0.918-0.605,1.686-1.371,2.31-2.297c0.524-0.758,1.287-2.162,2.292-4.215
				c1.004-2.053,1.612-3.449,1.829-4.19c0.298-0.942,0.304-1.716,0.02-2.322c-0.442-0.908-1.292-1.362-2.563-1.362
				c-1.289,0-2.609,0.454-3.978,1.362c-0.901,0.606-1.685,1.38-2.348,2.322c-0.523,0.741-1.329,2.138-2.417,4.19
				c-1.089,2.053-1.767,3.457-2.032,4.215c-0.319,0.926-0.332,1.691-0.032,2.297c0.325,0.623,0.886,1.035,1.68,1.236
				C325.663,262.086,325.451,262.499,325.238,262.911z"/>
		</g>
	</g>
	<g>
		
			<image overflow="visible" opacity="0.75" width="52" height="50" xlink:href="290918F6.png"  transform="matrix(1 0 0 1 321 229)">
		</image>
		<g>
			<path fill="#FFDD00" d="M343.36,253.572c2.682,0,5.363,0,8.045,0c-0.17,0.403-0.341,0.808-0.511,1.211c-2.696,0-5.392,0-8.087,0
				c-1.242,2.718-2.483,5.436-3.725,8.153c-0.468,0-0.936,0-1.404,0c2.771-5.99,5.543-11.981,8.315-17.972c3.463,0,6.926,0,10.39,0
				c-0.168,0.403-0.336,0.808-0.504,1.211c-3.046,0-6.093,0-9.14,0C345.612,248.642,344.486,251.106,343.36,253.572z"/>
			<path fill="none" stroke="#FFDD00" stroke-miterlimit="10" d="M343.36,253.572c2.682,0,5.363,0,8.045,0
				c-0.17,0.403-0.341,0.808-0.511,1.211c-2.696,0-5.392,0-8.087,0c-1.242,2.718-2.483,5.436-3.725,8.153c-0.468,0-0.936,0-1.404,0
				c2.771-5.99,5.543-11.981,8.315-17.972c3.463,0,6.926,0,10.39,0c-0.168,0.403-0.336,0.808-0.504,1.211c-3.046,0-6.093,0-9.14,0
				C345.612,248.642,344.486,251.106,343.36,253.572z"/>
		</g>
	</g>
	<g>
		
			<image overflow="visible" opacity="0.75" width="44" height="50" xlink:href="290918F1.png"  transform="matrix(1 0 0 1 343 229)">
		</image>
		<g>
			<path fill="#FFDD00" d="M365.978,244.965c0.433,0,0.866,0,1.299,0c-2.048,5.587-4.096,11.173-6.145,16.76
				c3.259,0,6.519,0,9.778,0c-0.132,0.404-0.263,0.808-0.395,1.212c-3.744,0-7.488,0-11.232,0
				C361.515,256.946,363.746,250.955,365.978,244.965z"/>
			<path fill="none" stroke="#FFDD00" stroke-miterlimit="10" d="M365.978,244.965c0.433,0,0.866,0,1.299,0
				c-2.048,5.587-4.096,11.173-6.145,16.76c3.259,0,6.519,0,9.778,0c-0.132,0.404-0.263,0.808-0.395,1.212
				c-3.744,0-7.488,0-11.232,0C361.515,256.946,363.746,250.955,365.978,244.965z"/>
		</g>
	</g>
	<g>
		
			<image overflow="visible" opacity="0.75" width="47" height="50" xlink:href="290918F2.png"  transform="matrix(1 0 0 1 358 229)">
		</image>
		<g>
			<path fill="#FFDD00" d="M377.986,262.911c-1.271-0.218-2.243-0.79-2.902-1.716c-0.536-0.774-0.735-1.691-0.604-2.752
				c0.085-0.757,0.485-2.263,1.197-4.518c0.713-2.255,1.264-3.762,1.649-4.519c0.529-1.06,1.279-1.969,2.24-2.726
				c1.543-1.229,3.141-1.843,4.824-1.843c1.666,0,2.908,0.614,3.756,1.843c0.522,0.757,0.745,1.666,0.661,2.726
				c-0.069,0.757-0.399,2.264-0.993,4.519s-1.058,3.761-1.394,4.518c-0.484,1.061-1.214,1.978-2.198,2.752
				c-1.241,0.959-2.606,1.539-4.085,1.741c0.115-0.404,0.23-0.808,0.346-1.212c1.019-0.185,1.966-0.613,2.837-1.287
				c0.785-0.605,1.385-1.371,1.804-2.297c0.357-0.758,0.812-2.162,1.364-4.215c0.552-2.053,0.853-3.449,0.906-4.19
				c0.091-0.942-0.074-1.716-0.491-2.322c-0.643-0.908-1.591-1.362-2.863-1.362c-1.289,0-2.509,0.454-3.678,1.362
				c-0.768,0.606-1.381,1.38-1.837,2.322c-0.36,0.741-0.858,2.138-1.495,4.19s-1.005,3.457-1.104,4.215
				c-0.116,0.926,0.041,1.691,0.474,2.297c0.462,0.623,1.114,1.035,1.952,1.236C378.229,262.086,378.107,262.499,377.986,262.911z"
				/>
			<path fill="none" stroke="#FFDD00" stroke-miterlimit="10" d="M377.986,262.911c-1.271-0.218-2.243-0.79-2.902-1.716
				c-0.536-0.774-0.735-1.691-0.604-2.752c0.085-0.757,0.485-2.263,1.197-4.518c0.713-2.255,1.264-3.762,1.649-4.519
				c0.529-1.06,1.279-1.969,2.24-2.726c1.543-1.229,3.141-1.843,4.824-1.843c1.666,0,2.908,0.614,3.756,1.843
				c0.522,0.757,0.745,1.666,0.661,2.726c-0.069,0.757-0.399,2.264-0.993,4.519s-1.058,3.761-1.394,4.518
				c-0.484,1.061-1.214,1.978-2.198,2.752c-1.241,0.959-2.606,1.539-4.085,1.741c0.115-0.404,0.23-0.808,0.346-1.212
				c1.019-0.185,1.966-0.613,2.837-1.287c0.785-0.605,1.385-1.371,1.804-2.297c0.357-0.758,0.812-2.162,1.364-4.215
				c0.552-2.053,0.853-3.449,0.906-4.19c0.091-0.942-0.074-1.716-0.491-2.322c-0.643-0.908-1.591-1.362-2.863-1.362
				c-1.289,0-2.509,0.454-3.678,1.362c-0.768,0.606-1.381,1.38-1.837,2.322c-0.36,0.741-0.858,2.138-1.495,4.19
				s-1.005,3.457-1.104,4.215c-0.116,0.926,0.041,1.691,0.474,2.297c0.462,0.623,1.114,1.035,1.952,1.236
				C378.229,262.086,378.107,262.499,377.986,262.911z"/>
		</g>
	</g>
	<g>
		
			<image overflow="visible" opacity="0.75" width="45" height="50" xlink:href="290918F0.png"  transform="matrix(1 0 0 1 376 229)">
		</image>
		<g>
			<path fill="#FFDD00" d="M393.655,262.937c-0.656-5.99-1.16-11.981-1.512-17.972c0.458,0,0.915,0,1.372,0
				c0.314,5.191,0.742,10.383,1.281,15.574c2.892-5.191,5.671-10.383,8.338-15.574c0.458,0,0.915,0,1.372,0
				c-3.066,5.99-6.284,11.981-9.654,17.972C394.453,262.937,394.054,262.937,393.655,262.937z"/>
			<path fill="none" stroke="#FFDD00" stroke-miterlimit="10" d="M393.655,262.937c-0.656-5.99-1.16-11.981-1.512-17.972
				c0.458,0,0.915,0,1.372,0c0.314,5.191,0.742,10.383,1.281,15.574c2.892-5.191,5.671-10.383,8.338-15.574c0.458,0,0.915,0,1.372,0
				c-3.066,5.99-6.284,11.981-9.654,17.972C394.453,262.937,394.054,262.937,393.655,262.937z"/>
		</g>
	</g>
	<g>
		
			<image overflow="visible" opacity="0.75" width="46" height="50" xlink:href="2909190E.png"  transform="matrix(1 0 0 1 388 229)">
		</image>
		<g>
			<path fill="#FFDD00" d="M407.391,244.965c3.463,0,6.927,0,10.39,0c-0.056,0.403-0.112,0.808-0.168,1.211c-3.047,0-6.093,0-9.14,0
				c-0.425,2.364-0.85,4.729-1.275,7.094c2.678,0,5.356,0,8.035,0c-0.059,0.403-0.117,0.808-0.176,1.211c-2.692,0-5.384,0-8.077,0
				c-0.434,2.415-0.868,4.829-1.302,7.244c3.259,0,6.519,0,9.778,0c-0.056,0.404-0.112,0.808-0.168,1.212c-3.744,0-7.488,0-11.232,0
				C405.167,256.946,406.279,250.955,407.391,244.965z"/>
			<path fill="none" stroke="#FFDD00" stroke-miterlimit="10" d="M407.391,244.965c3.463,0,6.927,0,10.39,0
				c-0.056,0.403-0.112,0.808-0.168,1.211c-3.047,0-6.093,0-9.14,0c-0.425,2.364-0.85,4.729-1.275,7.094c2.678,0,5.356,0,8.035,0
				c-0.059,0.403-0.117,0.808-0.176,1.211c-2.692,0-5.384,0-8.077,0c-0.434,2.415-0.868,4.829-1.302,7.244c3.259,0,6.519,0,9.778,0
				c-0.056,0.404-0.112,0.808-0.168,1.212c-3.744,0-7.488,0-11.232,0C405.167,256.946,406.279,250.955,407.391,244.965z"/>
		</g>
	</g>
	<g>
		
			<image overflow="visible" opacity="0.75" width="34" height="38" xlink:href="29091911.png"  transform="matrix(1 0 0 1 403 245)">
		</image>
		<g>
			<path fill="#FFDD00" d="M419.422,261.221c0.585,0,1.17,0,1.755,0c-0.131,1.144-0.263,2.288-0.395,3.432
				c-0.659,0.572-1.323,1.145-1.991,1.717C419.001,264.653,419.212,262.937,419.422,261.221z"/>
			<path fill="none" stroke="#FFDD00" stroke-miterlimit="10" d="M419.422,261.221c0.585,0,1.17,0,1.755,0
				c-0.131,1.144-0.263,2.288-0.395,3.432c-0.659,0.572-1.323,1.145-1.991,1.717C419.001,264.653,419.212,262.937,419.422,261.221z"
				/>
		</g>
	</g>
	<g>
		
			<image overflow="visible" opacity="0.75" width="43" height="50" xlink:href="29091912.png"  transform="matrix(1 0 0 1 417 229)">
		</image>
		<g>
			<path fill="#FFDD00" d="M434.109,244.965c0.433,0,0.866,0,1.299,0c-0.331,5.587-0.662,11.173-0.993,16.76
				c3.259,0,6.519,0,9.778,0c-0.007,0.404-0.015,0.808-0.022,1.212c-3.744,0-7.488,0-11.232,0
				C433.33,256.946,433.719,250.955,434.109,244.965z"/>
			<path fill="none" stroke="#FFDD00" stroke-miterlimit="10" d="M434.109,244.965c0.433,0,0.866,0,1.299,0
				c-0.331,5.587-0.662,11.173-0.993,16.76c3.259,0,6.519,0,9.778,0c-0.007,0.404-0.015,0.808-0.022,1.212
				c-3.744,0-7.488,0-11.232,0C433.33,256.946,433.719,250.955,434.109,244.965z"/>
		</g>
	</g>
	<g>
		
			<image overflow="visible" opacity="0.75" width="44" height="50" xlink:href="29091910.png"  transform="matrix(1 0 0 1 431 229)">
		</image>
		<g>
			<path fill="#FFDD00" d="M451.634,262.911c-1.337-0.218-2.485-0.79-3.429-1.716c-0.774-0.774-1.255-1.691-1.45-2.752
				c-0.147-0.757-0.21-2.263-0.191-4.518c0.02-2.255,0.107-3.762,0.26-4.519c0.203-1.06,0.673-1.969,1.402-2.726
				c1.166-1.229,2.574-1.843,4.256-1.843c1.667,0,3.098,0.614,4.323,1.843c0.755,0.757,1.257,1.666,1.499,2.726
				c0.163,0.757,0.296,2.264,0.396,4.519s0.099,3.761-0.005,4.518c-0.159,1.061-0.607,1.978-1.353,2.752
				c-0.946,0.959-2.133,1.539-3.55,1.741c-0.009-0.404-0.018-0.808-0.026-1.212c0.962-0.185,1.777-0.613,2.441-1.287
				c0.599-0.605,0.963-1.371,1.098-2.297c0.125-0.758,0.146-2.162,0.068-4.215c-0.079-2.053-0.208-3.449-0.382-4.19
				c-0.199-0.942-0.602-1.716-1.206-2.322c-0.921-0.908-2.009-1.362-3.281-1.362c-1.289,0-2.37,0.454-3.259,1.362
				c-0.582,0.606-0.957,1.38-1.123,2.322c-0.132,0.741-0.201,2.138-0.207,4.19c-0.005,2.053,0.057,3.457,0.192,4.215
				c0.168,0.926,0.56,1.691,1.179,2.297c0.654,0.623,1.432,1.035,2.333,1.236C451.623,262.086,451.629,262.499,451.634,262.911z"/>
			<path fill="none" stroke="#FFDD00" stroke-miterlimit="10" d="M451.634,262.911c-1.337-0.218-2.485-0.79-3.429-1.716
				c-0.774-0.774-1.255-1.691-1.45-2.752c-0.147-0.757-0.21-2.263-0.191-4.518c0.02-2.255,0.107-3.762,0.26-4.519
				c0.203-1.06,0.673-1.969,1.402-2.726c1.166-1.229,2.574-1.843,4.256-1.843c1.667,0,3.098,0.614,4.323,1.843
				c0.755,0.757,1.257,1.666,1.499,2.726c0.163,0.757,0.296,2.264,0.396,4.519s0.099,3.761-0.005,4.518
				c-0.159,1.061-0.607,1.978-1.353,2.752c-0.946,0.959-2.133,1.539-3.55,1.741c-0.009-0.404-0.018-0.808-0.026-1.212
				c0.962-0.185,1.777-0.613,2.441-1.287c0.599-0.605,0.963-1.371,1.098-2.297c0.125-0.758,0.146-2.162,0.068-4.215
				c-0.079-2.053-0.208-3.449-0.382-4.19c-0.199-0.942-0.602-1.716-1.206-2.322c-0.921-0.908-2.009-1.362-3.281-1.362
				c-1.289,0-2.37,0.454-3.259,1.362c-0.582,0.606-0.957,1.38-1.123,2.322c-0.132,0.741-0.201,2.138-0.207,4.19
				c-0.005,2.053,0.057,3.457,0.192,4.215c0.168,0.926,0.56,1.691,1.179,2.297c0.654,0.623,1.432,1.035,2.333,1.236
				C451.623,262.086,451.629,262.499,451.634,262.911z"/>
		</g>
	</g>
	<g>
		
			<image overflow="visible" opacity="0.75" width="44" height="50" xlink:href="29091916.png"  transform="matrix(1 0 0 1 446 229)">
		</image>
		<g>
			<path fill="#FFDD00" d="M473.169,261.75c-1.028,0.893-2.515,1.338-4.44,1.338c-2.481,0-4.599-0.791-6.305-2.373
				c0.308-0.319,0.613-0.64,0.918-0.959c1.525,1.414,3.325,2.121,5.362,2.121c1.467,0,2.594-0.328,3.371-0.984
				s1.1-1.565,0.978-2.727c-0.117-1.127-0.535-1.969-1.246-2.523c-0.67-0.488-1.564-0.809-2.682-0.96
				c-0.704-0.109-1.407-0.219-2.109-0.328c-1.37-0.202-2.462-0.64-3.271-1.313c-0.983-0.79-1.51-1.894-1.594-3.307
				c-0.091-1.515,0.317-2.718,1.209-3.609c0.893-0.874,2.156-1.313,3.806-1.313c1.858,0,3.557,0.647,5.134,1.943
				c-0.251,0.295-0.504,0.589-0.758,0.884c-1.234-1.111-2.677-1.666-4.351-1.666c-1.256,0-2.204,0.328-2.854,0.984
				c-0.665,0.656-0.964,1.564-0.888,2.727c0.068,1.043,0.423,1.826,1.072,2.347c0.667,0.539,1.574,0.909,2.721,1.11
				c0.648,0.101,1.298,0.202,1.947,0.303c1.45,0.203,2.547,0.598,3.295,1.188c1.125,0.857,1.777,2.019,1.939,3.482
				C474.593,259.646,474.181,260.858,473.169,261.75z"/>
			<path fill="none" stroke="#FFDD00" stroke-miterlimit="10" d="M473.169,261.75c-1.028,0.893-2.515,1.338-4.44,1.338
				c-2.481,0-4.599-0.791-6.305-2.373c0.308-0.319,0.613-0.64,0.918-0.959c1.525,1.414,3.325,2.121,5.362,2.121
				c1.467,0,2.594-0.328,3.371-0.984s1.1-1.565,0.978-2.727c-0.117-1.127-0.535-1.969-1.246-2.523
				c-0.67-0.488-1.564-0.809-2.682-0.96c-0.704-0.109-1.407-0.219-2.109-0.328c-1.37-0.202-2.462-0.64-3.271-1.313
				c-0.983-0.79-1.51-1.894-1.594-3.307c-0.091-1.515,0.317-2.718,1.209-3.609c0.893-0.874,2.156-1.313,3.806-1.313
				c1.858,0,3.557,0.647,5.134,1.943c-0.251,0.295-0.504,0.589-0.758,0.884c-1.234-1.111-2.677-1.666-4.351-1.666
				c-1.256,0-2.204,0.328-2.854,0.984c-0.665,0.656-0.964,1.564-0.888,2.727c0.068,1.043,0.423,1.826,1.072,2.347
				c0.667,0.539,1.574,0.909,2.721,1.11c0.648,0.101,1.298,0.202,1.947,0.303c1.45,0.203,2.547,0.598,3.295,1.188
				c1.125,0.857,1.777,2.019,1.939,3.482C474.593,259.646,474.181,260.858,473.169,261.75z"/>
		</g>
	</g>
	<g>
		
			<image overflow="visible" opacity="0.75" width="45" height="50" xlink:href="29091913.png"  transform="matrix(1 0 0 1 460 229)">
		</image>
		<g>
			<path fill="#FFDD00" d="M488.2,261.75c-0.972,0.893-2.431,1.338-4.356,1.338c-2.481,0-4.648-0.791-6.454-2.373
				c0.287-0.319,0.573-0.64,0.857-0.959c1.614,1.414,3.459,2.121,5.495,2.121c1.468,0,2.574-0.328,3.31-0.984
				c0.736-0.656,1.001-1.565,0.807-2.727c-0.189-1.127-0.66-1.969-1.405-2.523c-0.701-0.488-1.615-0.809-2.742-0.96
				c-0.712-0.109-1.422-0.219-2.131-0.328c-1.383-0.202-2.502-0.64-3.354-1.313c-1.033-0.79-1.629-1.894-1.803-3.307
				c-0.187-1.515,0.146-2.718,0.981-3.609c0.838-0.874,2.073-1.313,3.724-1.313c1.858,0,3.598,0.647,5.256,1.943
				c-0.232,0.295-0.467,0.589-0.702,0.884c-1.304-1.111-2.781-1.666-4.456-1.666c-1.256,0-2.183,0.328-2.791,0.984
				c-0.624,0.656-0.866,1.564-0.716,2.727c0.134,1.043,0.538,1.826,1.22,2.347c0.701,0.539,1.632,0.909,2.792,1.11
				c0.654,0.101,1.31,0.202,1.966,0.303c1.463,0.203,2.584,0.598,3.369,1.188c1.18,0.857,1.905,2.019,2.159,3.482
				C489.491,259.646,489.155,260.858,488.2,261.75z"/>
			<path fill="none" stroke="#FFDD00" stroke-miterlimit="10" d="M488.2,261.75c-0.972,0.893-2.431,1.338-4.356,1.338
				c-2.481,0-4.648-0.791-6.454-2.373c0.287-0.319,0.573-0.64,0.857-0.959c1.614,1.414,3.459,2.121,5.495,2.121
				c1.468,0,2.574-0.328,3.31-0.984c0.736-0.656,1.001-1.565,0.807-2.727c-0.189-1.127-0.66-1.969-1.405-2.523
				c-0.701-0.488-1.615-0.809-2.742-0.96c-0.712-0.109-1.422-0.219-2.131-0.328c-1.383-0.202-2.502-0.64-3.354-1.313
				c-1.033-0.79-1.629-1.894-1.803-3.307c-0.187-1.515,0.146-2.718,0.981-3.609c0.838-0.874,2.073-1.313,3.724-1.313
				c1.858,0,3.598,0.647,5.256,1.943c-0.232,0.295-0.467,0.589-0.702,0.884c-1.304-1.111-2.781-1.666-4.456-1.666
				c-1.256,0-2.183,0.328-2.791,0.984c-0.624,0.656-0.866,1.564-0.716,2.727c0.134,1.043,0.538,1.826,1.22,2.347
				c0.701,0.539,1.632,0.909,2.792,1.11c0.654,0.101,1.31,0.202,1.966,0.303c1.463,0.203,2.584,0.598,3.369,1.188
				c1.18,0.857,1.905,2.019,2.159,3.482C489.491,259.646,489.155,260.858,488.2,261.75z"/>
		</g>
	</g>
	<g>
		
			<image overflow="visible" opacity="0.75" width="47" height="50" xlink:href="29091935.png"  transform="matrix(1 0 0 1 483 229)">
		</image>
		<g>
			<path fill="#FFDD00" d="M502.303,245.016c3.55,5.974,7.269,11.947,11.158,17.921c-0.503,0-1.006,0-1.508,0
				c-0.923-1.455-1.835-2.911-2.738-4.366c-0.008,0-0.017,0-0.025,0c-0.238-0.396-0.476-0.792-0.713-1.188
				c-0.364-0.597-0.728-1.194-1.089-1.791c-0.228-0.37-0.456-0.741-0.683-1.111c-1.545-2.549-3.059-5.099-4.544-7.647
				c-0.353,3.517-0.762,7.033-1.227,10.55c1.761,0,3.521,0,5.282,0c0.241,0.396,0.483,0.792,0.727,1.188c-2.06,0-4.119,0-6.178,0
				c-0.204,1.455-0.418,2.911-0.643,4.366c-0.502,0-1.005,0-1.508,0c1.014-5.974,1.858-11.947,2.533-17.921
				C501.533,245.016,501.918,245.016,502.303,245.016z"/>
			<path fill="none" stroke="#FFDD00" stroke-miterlimit="10" d="M502.303,245.016c3.55,5.974,7.269,11.947,11.158,17.921
				c-0.503,0-1.006,0-1.508,0c-0.923-1.455-1.835-2.911-2.738-4.366c-0.008,0-0.017,0-0.025,0c-0.238-0.396-0.476-0.792-0.713-1.188
				c-0.364-0.597-0.728-1.194-1.089-1.791c-0.228-0.37-0.456-0.741-0.683-1.111c-1.545-2.549-3.059-5.099-4.544-7.647
				c-0.353,3.517-0.762,7.033-1.227,10.55c1.761,0,3.521,0,5.282,0c0.241,0.396,0.483,0.792,0.727,1.188c-2.06,0-4.119,0-6.178,0
				c-0.204,1.455-0.418,2.911-0.643,4.366c-0.502,0-1.005,0-1.508,0c1.014-5.974,1.858-11.947,2.533-17.921
				C501.533,245.016,501.918,245.016,502.303,245.016z"/>
		</g>
	</g>
	<g>
		
			<image overflow="visible" opacity="0.75" width="51" height="50" xlink:href="29091937.png"  transform="matrix(1 0 0 1 495 229)">
		</image>
		<g>
			<path fill="#FFDD00" d="M513.602,247.313c1.513,5.208,3.026,10.416,4.539,15.624c-0.469,0-0.937,0-1.404,0
				c-1.705-5.99-3.41-11.981-5.115-17.972c0.433,0,0.866,0,1.299,0c4.803,5.191,9.837,10.383,15.103,15.574
				c-1.739-5.191-3.479-10.383-5.218-15.574c0.433,0,0.865,0,1.299,0c2.042,5.99,4.084,11.981,6.127,17.972
				c-0.468,0-0.937,0-1.404,0C523.52,257.729,518.444,252.521,513.602,247.313z"/>
			<path fill="none" stroke="#FFDD00" stroke-miterlimit="10" d="M513.602,247.313c1.513,5.208,3.026,10.416,4.539,15.624
				c-0.469,0-0.937,0-1.404,0c-1.705-5.99-3.41-11.981-5.115-17.972c0.433,0,0.866,0,1.299,0
				c4.803,5.191,9.837,10.383,15.103,15.574c-1.739-5.191-3.479-10.383-5.218-15.574c0.433,0,0.865,0,1.299,0
				c2.042,5.99,4.084,11.981,6.127,17.972c-0.468,0-0.937,0-1.404,0C523.52,257.729,518.444,252.521,513.602,247.313z"/>
		</g>
	</g>
	<g>
		
			<image overflow="visible" opacity="0.75" width="50" height="50" xlink:href="29091934.png"  transform="matrix(1 0 0 1 513 229)">
		</image>
		<g>
			<path fill="#FFDD00" d="M537.381,262.937c-0.469,0-0.937,0-1.404,0c-2.184-5.982-4.366-11.964-6.549-17.946
				c1.916,0,3.832,0,5.748,0c1.795,0,3.431,0.547,4.93,1.641c1.1,0.791,2.062,1.893,2.881,3.307c0.43,0.758,1.012,2.011,1.742,3.761
				c0.78,1.868,1.283,3.214,1.509,4.038c0.404,1.582,0.367,2.769-0.118,3.56c-0.669,1.095-1.987,1.641-3.93,1.641
				c-0.884,0-1.768,0-2.651,0c-0.153-0.404-0.307-0.808-0.46-1.212c0.767,0,1.534,0,2.302,0c1.725,0,2.854-0.463,3.369-1.388
				c0.527-0.942,0.065-3.155-1.37-6.639c-1.29-3.13-2.563-5.165-3.805-6.108c-1.22-0.926-2.628-1.389-4.24-1.389
				c-1.386,0-2.772,0-4.158,0C533.244,251.779,535.313,257.358,537.381,262.937z"/>
			<path fill="none" stroke="#FFDD00" stroke-miterlimit="10" d="M537.381,262.937c-0.469,0-0.937,0-1.404,0
				c-2.184-5.982-4.366-11.964-6.549-17.946c1.916,0,3.832,0,5.748,0c1.795,0,3.431,0.547,4.93,1.641
				c1.1,0.791,2.062,1.893,2.881,3.307c0.43,0.758,1.012,2.011,1.742,3.761c0.78,1.868,1.283,3.214,1.509,4.038
				c0.404,1.582,0.367,2.769-0.118,3.56c-0.669,1.095-1.987,1.641-3.93,1.641c-0.884,0-1.768,0-2.651,0
				c-0.153-0.404-0.307-0.808-0.46-1.212c0.767,0,1.534,0,2.302,0c1.725,0,2.854-0.463,3.369-1.388
				c0.527-0.942,0.065-3.155-1.37-6.639c-1.29-3.13-2.563-5.165-3.805-6.108c-1.22-0.926-2.628-1.389-4.24-1.389
				c-1.386,0-2.772,0-4.158,0C533.244,251.779,535.313,257.358,537.381,262.937z"/>
		</g>
	</g>
	<g>
		
			<image overflow="visible" opacity="0.75" width="53" height="50" xlink:href="29091933.png"  transform="matrix(1 0 0 1 536 229)">
		</image>
		<g>
			<path fill="#FFDD00" d="M566.927,254.48c-3.102,0-6.203,0-9.306,0c1.33,2.818,2.661,5.638,3.991,8.456c-0.469,0-0.937,0-1.404,0
				c-2.792-5.99-5.584-11.981-8.376-17.972c0.433,0,0.866,0,1.299,0c1.307,2.769,2.613,5.536,3.919,8.305c3.086,0,6.171,0,9.257,0
				c-1.418-2.769-2.836-5.536-4.253-8.305c0.433,0,0.865,0,1.299,0c3.103,5.99,6.206,11.981,9.31,17.972c-0.469,0-0.937,0-1.404,0
				C569.814,260.118,568.37,257.299,566.927,254.48z"/>
			<path fill="none" stroke="#FFDD00" stroke-miterlimit="10" d="M566.927,254.48c-3.102,0-6.203,0-9.306,0
				c1.33,2.818,2.661,5.638,3.991,8.456c-0.469,0-0.937,0-1.404,0c-2.792-5.99-5.584-11.981-8.376-17.972c0.433,0,0.866,0,1.299,0
				c1.307,2.769,2.613,5.536,3.919,8.305c3.086,0,6.171,0,9.257,0c-1.418-2.769-2.836-5.536-4.253-8.305c0.433,0,0.865,0,1.299,0
				c3.103,5.99,6.206,11.981,9.31,17.972c-0.469,0-0.937,0-1.404,0C569.814,260.118,568.37,257.299,566.927,254.48z"/>
		</g>
	</g>
	<g>
		
			<image overflow="visible" opacity="0.75" width="52" height="50" xlink:href="2909193D.png"  transform="matrix(1 0 0 1 552 229)">
		</image>
		<g>
			<path fill="#FFDD00" d="M587.348,257.105c1.039,1.75,1.316,3.189,0.806,4.316c-0.536,1.111-1.746,1.666-3.603,1.666
				s-3.694-0.555-5.492-1.666c-1.789-1.127-3.145-2.566-4.09-4.316c-2.188-4.047-4.377-8.094-6.565-12.141c0.433,0,0.865,0,1.298,0
				c2.18,3.988,4.36,7.977,6.54,11.965c0.819,1.498,1.912,2.691,3.298,3.584c1.394,0.908,2.841,1.363,4.325,1.363
				s2.415-0.455,2.778-1.363c0.373-0.893,0.112-2.086-0.769-3.584c-2.345-3.988-4.689-7.977-7.034-11.965c0.433,0,0.866,0,1.299,0
				C582.542,249.012,584.944,253.059,587.348,257.105z"/>
			<path fill="none" stroke="#FFDD00" stroke-miterlimit="10" d="M587.348,257.105c1.039,1.75,1.316,3.189,0.806,4.316
				c-0.536,1.111-1.746,1.666-3.603,1.666s-3.694-0.555-5.492-1.666c-1.789-1.127-3.145-2.566-4.09-4.316
				c-2.188-4.047-4.377-8.094-6.565-12.141c0.433,0,0.865,0,1.298,0c2.18,3.988,4.36,7.977,6.54,11.965
				c0.819,1.498,1.912,2.691,3.298,3.584c1.394,0.908,2.841,1.363,4.325,1.363s2.415-0.455,2.778-1.363
				c0.373-0.893,0.112-2.086-0.769-3.584c-2.345-3.988-4.689-7.977-7.034-11.965c0.433,0,0.866,0,1.299,0
				C582.542,249.012,584.944,253.059,587.348,257.105z"/>
		</g>
	</g>
	<g>
		
			<image overflow="visible" opacity="0.75" width="59" height="50" xlink:href="2909193F.png"  transform="matrix(1 0 0 1 569 229)">
		</image>
		<g>
			<path fill="#FFDD00" d="M600.403,248.12c1.012,4.098,1.928,8.194,2.747,12.292c-0.463,0-0.926,0-1.39,0
				c-4.534-4.098-8.971-8.194-13.31-12.292c3.074,4.938,6.147,9.878,9.222,14.816c-0.468,0-0.937,0-1.404,0
				c-3.693-5.99-7.387-11.981-11.08-17.972c0.433,0,0.866,0,1.299,0c4.863,4.619,9.851,9.238,14.962,13.857
				c-0.938-4.619-1.997-9.238-3.178-13.857c0.434,0,0.866,0,1.299,0c4.082,5.99,8.165,11.981,12.247,17.972
				c-0.469,0-0.937,0-1.404,0C607.076,257.998,603.74,253.059,600.403,248.12z"/>
			<path fill="none" stroke="#FFDD00" stroke-miterlimit="10" d="M600.403,248.12c1.012,4.098,1.928,8.194,2.747,12.292
				c-0.463,0-0.926,0-1.39,0c-4.534-4.098-8.971-8.194-13.31-12.292c3.074,4.938,6.147,9.878,9.222,14.816c-0.468,0-0.937,0-1.404,0
				c-3.693-5.99-7.387-11.981-11.08-17.972c0.433,0,0.866,0,1.299,0c4.863,4.619,9.851,9.238,14.962,13.857
				c-0.938-4.619-1.997-9.238-3.178-13.857c0.434,0,0.866,0,1.299,0c4.082,5.99,8.165,11.981,12.247,17.972
				c-0.469,0-0.937,0-1.404,0C607.076,257.998,603.74,253.059,600.403,248.12z"/>
		</g>
	</g>
	<g>
		
			<image overflow="visible" opacity="0.75" width="54" height="50" xlink:href="2909193C.png"  transform="matrix(1 0 0 1 593 229)">
		</image>
		<g>
			<path fill="#FFDD00" d="M610.044,245.016c6.453,5.974,13.075,11.947,19.867,17.921c-0.502,0-1.005,0-1.508,0
				c-1.63-1.455-3.249-2.911-4.859-4.366c-0.009,0-0.017,0-0.025,0c-0.431-0.396-0.861-0.792-1.29-1.188
				c-0.655-0.597-1.308-1.194-1.959-1.791c-0.409-0.37-0.816-0.741-1.224-1.111c-2.783-2.549-5.536-5.099-8.26-7.647
				c1.356,3.517,2.656,7.033,3.899,10.55c1.761,0,3.521,0,5.283,0c0.434,0.396,0.867,0.792,1.303,1.188c-2.059,0-4.118,0-6.178,0
				c0.504,1.455,0.997,2.911,1.48,4.366c-0.503,0-1.006,0-1.508,0c-1.89-5.974-3.948-11.947-6.177-17.921
				C609.274,245.016,609.659,245.016,610.044,245.016z"/>
			<path fill="none" stroke="#FFDD00" stroke-miterlimit="10" d="M610.044,245.016c6.453,5.974,13.075,11.947,19.867,17.921
				c-0.502,0-1.005,0-1.508,0c-1.63-1.455-3.249-2.911-4.859-4.366c-0.009,0-0.017,0-0.025,0c-0.431-0.396-0.861-0.792-1.29-1.188
				c-0.655-0.597-1.308-1.194-1.959-1.791c-0.409-0.37-0.816-0.741-1.224-1.111c-2.783-2.549-5.536-5.099-8.26-7.647
				c1.356,3.517,2.656,7.033,3.899,10.55c1.761,0,3.521,0,5.283,0c0.434,0.396,0.867,0.792,1.303,1.188c-2.059,0-4.118,0-6.178,0
				c0.504,1.455,0.997,2.911,1.48,4.366c-0.503,0-1.006,0-1.508,0c-1.89-5.974-3.948-11.947-6.177-17.921
				C609.274,245.016,609.659,245.016,610.044,245.016z"/>
		</g>
	</g>
	<g>
		
			<image overflow="visible" opacity="0.75" width="60" height="50" xlink:href="29091936.png"  transform="matrix(1 0 0 1 603 229)">
		</image>
		<g>
			<path fill="#FFDD00" d="M622.459,247.313c4.044,5.208,8.088,10.416,12.132,15.624c-0.468,0-0.937,0-1.404,0
				c-4.616-5.99-9.232-11.981-13.849-17.972c0.433,0,0.866,0,1.299,0c7.325,5.191,14.883,10.383,22.672,15.574
				c-4.263-5.191-8.525-10.383-12.788-15.574c0.434,0,0.866,0,1.3,0c4.953,5.99,9.907,11.981,14.86,17.972c-0.468,0-0.936,0-1.404,0
				C637.438,257.729,629.833,252.521,622.459,247.313z"/>
			<path fill="none" stroke="#FFDD00" stroke-miterlimit="10" d="M622.459,247.313c4.044,5.208,8.088,10.416,12.132,15.624
				c-0.468,0-0.937,0-1.404,0c-4.616-5.99-9.232-11.981-13.849-17.972c0.433,0,0.866,0,1.299,0
				c7.325,5.191,14.883,10.383,22.672,15.574c-4.263-5.191-8.525-10.383-12.788-15.574c0.434,0,0.866,0,1.3,0
				c4.953,5.99,9.907,11.981,14.86,17.972c-0.468,0-0.936,0-1.404,0C637.438,257.729,629.833,252.521,622.459,247.313z"/>
		</g>
	</g>
	<g>
		
			<image overflow="visible" opacity="0.75" width="49" height="50" xlink:href="29091909.png"  transform="matrix(1 0 0 1 621 229)">
		</image>
		<g>
			<path fill="#FFDD00" d="M637.11,244.965c0.434,0,0.866,0,1.299,0c5.132,5.99,10.264,11.981,15.396,17.972
				c-0.468,0-0.936,0-1.404,0C647.304,256.946,642.207,250.955,637.11,244.965z"/>
			<path fill="none" stroke="#FFDD00" stroke-miterlimit="10" d="M637.11,244.965c0.434,0,0.866,0,1.299,0
				c5.132,5.99,10.264,11.981,15.396,17.972c-0.468,0-0.936,0-1.404,0C647.304,256.946,642.207,250.955,637.11,244.965z"/>
		</g>
	</g>
	<g>
		
			<image overflow="visible" opacity="0.75" width="56" height="50" xlink:href="2909190A.png"  transform="matrix(1 0 0 1 625 229)">
		</image>
		<g>
			<path fill="#FFDD00" d="M664.361,262.937c-0.469,0-0.937,0-1.404,0c-5-5.587-9.999-11.174-14.998-16.761
				c-1.709,0-3.418,0-5.127,0c-0.353-0.403-0.704-0.808-1.056-1.211c3.84,0,7.68,0,11.52,0c0.373,0.403,0.746,0.808,1.119,1.211
				c-1.717,0-3.434,0-5.15,0C654.297,251.763,659.329,257.35,664.361,262.937z"/>
			<path fill="none" stroke="#FFDD00" stroke-miterlimit="10" d="M664.361,262.937c-0.469,0-0.937,0-1.404,0
				c-5-5.587-9.999-11.174-14.998-16.761c-1.709,0-3.418,0-5.127,0c-0.353-0.403-0.704-0.808-1.056-1.211c3.84,0,7.68,0,11.52,0
				c0.373,0.403,0.746,0.808,1.119,1.211c-1.717,0-3.434,0-5.15,0C654.297,251.763,659.329,257.35,664.361,262.937z"/>
		</g>
	</g>
	<g>
		
			<image overflow="visible" opacity="0.75" width="57" height="50" xlink:href="29091958.png"  transform="matrix(1 0 0 1 637 229)">
		</image>
		<g>
			<path fill="#FFDD00" d="M677.802,262.937c-0.468,0-0.937,0-1.404,0c-2.36-2.482-4.721-4.964-7.081-7.446
				c-5.1-3.509-10.119-7.017-15.06-10.525c0.466,0,0.931,0,1.396,0c4.281,3.029,8.622,6.058,13.022,9.087
				c-1.413-3.029-2.884-6.058-4.413-9.087c0.465,0,0.93,0,1.395,0c1.753,3.509,3.427,7.017,5.021,10.525
				C673.053,257.973,675.427,260.454,677.802,262.937z"/>
			<path fill="none" stroke="#FFDD00" stroke-miterlimit="10" d="M677.802,262.937c-0.468,0-0.937,0-1.404,0
				c-2.36-2.482-4.721-4.964-7.081-7.446c-5.1-3.509-10.119-7.017-15.06-10.525c0.466,0,0.931,0,1.396,0
				c4.281,3.029,8.622,6.058,13.022,9.087c-1.413-3.029-2.884-6.058-4.413-9.087c0.465,0,0.93,0,1.395,0
				c1.753,3.509,3.427,7.017,5.021,10.525C673.053,257.973,675.427,260.454,677.802,262.937z"/>
		</g>
	</g>
</g>
</svg>
